<?xml version="1.0" standalone="no"?>
<!DOCTYPE svg PUBLIC "-//W3C//DTD SVG 20010904//EN"
 "http://www.w3.org/TR/2001/REC-SVG-20010904/DTD/svg10.dtd">
<svg version="1.0" xmlns="http://www.w3.org/2000/svg"
 width="260.000000pt" height="260.000000pt" viewBox="0 0 260.000000 260.000000"
 preserveAspectRatio="xMidYMid meet">
<metadata>
Created by potrace 1.11, written by Peter Selinger 2001-2013
</metadata>
<g transform="translate(0.000000,260.000000) scale(0.100000,-0.100000)"
fill="#000000" stroke="none">
<path d="M1198 2365 c-2 -2 -21 -6 -43 -8 -316 -37 -618 -252 -783 -558 -38
-70 -87 -214 -103 -299 -14 -82 -19 -243 -8 -312 5 -29 11 -66 13 -83 3 -16
15 -61 27 -100 102 -333 361 -593 698 -699 136 -43 197 -47 708 -47 455 0 485
1 525 19 55 25 93 66 113 122 13 38 15 111 14 530 -1 363 -5 505 -15 564 -56
315 -257 595 -536 746 -75 40 -188 86 -233 94 -14 3 -33 7 -43 10 -46 14 -87
18 -204 21 -69 2 -128 2 -130 0z m276 -280 c56 -12 170 -55 225 -86 212 -119
372 -354 398 -584 30 -267 -56 -508 -245 -687 -348 -328 -905 -270 -1184 122
-200 283 -190 672 25 946 119 151 313 267 486 290 25 3 48 8 50 10 6 6 210 -3
245 -11z"/>
<path d="M1215 1725 c-117 -26 -227 -112 -280 -215 -109 -215 -22 -477 191
-576 70 -32 122 -42 201 -39 228 10 409 206 399 433 -2 41 -8 77 -12 82 -5 5
-62 10 -126 12 -113 3 -119 4 -145 31 -27 26 -28 32 -32 148 -2 78 -7 122 -15
125 -28 10 -136 10 -181 -1z"/>
</g>
</svg>
