<?xml version="1.0" encoding="UTF-8"?>
<svg width="40px" height="41px" viewBox="0 0 40 41" version="1.1" xmlns="http://www.w3.org/2000/svg" xmlns:xlink="http://www.w3.org/1999/xlink">
    <!-- Generator: sketchtool 50.2 (55047) - http://www.bohemiancoding.com/sketch -->
    <title>A295E75A-689A-48A3-88FD-2E8D6A91D0C1</title>
    <desc>Created with sketchtool.</desc>
    <defs></defs>
    <g id="Page-1" stroke="none" stroke-width="1" fill="none" fill-rule="evenodd">
        <g id="Landing-Page" transform="translate(-261.000000, -963.000000)" fill-rule="nonzero">
            <g id="Group-10" transform="translate(126.000000, 963.000000)">
                <g id="ic--slack" transform="translate(135.000000, 0.000000)">
                    <path d="M27.2,6.6 L20.6,8.9 L19.2,4.6 C18.6,2.8 19.5,0.8 21.4,0.2 C23.2,-0.4 25.2,0.5 25.8,2.4 L27.2,6.6 Z M25.2,22.6 L31.8,20.3 L29.5,13.2 L22.9,15.5 L25.2,22.6 Z M28.6,32.8 C29.1,34.2 30.5,35.2 31.9,35.2 C32.3,35.2 32.7,35.1 33,35 C34.8,34.4 35.8,32.4 35.2,30.6 L34,27 L27.4,29.3 L28.6,32.8 Z" id="Shape" fill="#FFB300"></path>
                    <path d="M13.2,11.5 L6.6,13.8 L5.2,9.6 C4.6,7.8 5.5,5.8 7.4,5.2 C9.2,4.6 11.2,5.5 11.8,7.4 L13.2,11.5 Z M14.6,37.8 C15.1,39.2 16.5,40.2 17.9,40.2 C18.3,40.2 18.7,40.1 19,40 C20.8,39.4 21.8,37.4 21.2,35.6 L20,31.9 L13.4,34.2 L14.6,37.8 Z M15.4,18.2 L8.8,20.5 L11.1,27.6 L17.7,25.3 L15.4,18.2 Z" id="Shape" fill="#00BFA5"></path>
                    <path d="M29.4,13.3 L27.2,6.7 L31.3,5.3 C33.1,4.7 35.1,5.6 35.7,7.5 C36.3,9.3 35.4,11.3 33.5,11.9 L29.4,13.3 Z M22.8,15.6 L20.6,9 L13.2,11.6 L15.4,18.2 L22.8,15.6 Z M2.4,15.3 C0.6,15.9 -0.4,17.9 0.2,19.7 C0.7,21.2 2.1,22.1 3.5,22.1 C3.9,22.1 4.3,22 4.6,21.9 L8.7,20.5 L6.5,13.9 L2.4,15.3 Z" id="Shape" fill="#00BCD4"></path>
                    <path d="M11.1,27.5 L13.3,34.1 L8.6,35.7 C8.2,35.8 7.8,35.9 7.5,35.9 C6,35.9 4.7,35 4.2,33.5 C3.6,31.7 4.5,29.7 6.4,29.1 L11.1,27.5 Z M39.7,21.3 C39.1,19.5 37.1,18.5 35.3,19.1 L31.8,20.3 L34,27 L37.6,25.8 C39.4,25.1 40.4,23.1 39.7,21.3 Z M17.7,25.2 L19.9,31.8 L27.3,29.2 L25.1,22.6 L17.7,25.2 Z" id="Shape" fill="#E91E63"></path>
                    <polygon id="Shape" fill="#388E3C" points="29.4 13.3 27.2 6.6 20.6 8.9 22.8 15.6"></polygon>
                    <polygon id="Shape" fill="#00897B" points="13.2 11.5 6.6 13.8 8.8 20.5 15.4 18.2"></polygon>
                    <polygon id="Shape" fill="#BF360C" points="25.2 22.6 27.4 29.3 34 27 31.8 20.3"></polygon>
                    <polygon id="Shape" fill="#4E342E" points="11.1 27.5 13.3 34.2 19.9 31.9 17.7 25.2"></polygon>
                </g>
            </g>
        </g>
    </g>
</svg>