<?xml version="1.0" encoding="UTF-8"?>
<svg width="22px" height="37px" viewBox="0 0 22 37" version="1.1" xmlns="http://www.w3.org/2000/svg" xmlns:xlink="http://www.w3.org/1999/xlink">
    <!-- Generator: Sketch 50.2 (55047) - http://www.bohemiancoding.com/sketch -->
    <title>ic--lightningBolt</title>
    <desc>Created with Sketch.</desc>
    <defs></defs>
    <g id="Page-1" stroke="none" stroke-width="1" fill="none" fill-rule="evenodd">
        <g id="Landing-Page" transform="translate(-1150.000000, -966.000000)" fill="#0084FF" fill-rule="nonzero">
            <g id="Group-12" transform="translate(1006.000000, 966.000000)">
                <g id="ic--lightningBolt" transform="translate(144.000000, 0.000000)">
                    <path d="M11,0 C10.6461771,4.29282499e-05 10.3297395,0.218866004 10.2067308,0.548561823 L0.261117831,19.288352 C0.0912692015,19.5558465 0.000766492232,19.8655193 0,20.1818179 C0,21.1106604 0.757671962,21.863636 1.69230769,21.863636 L10.1538462,21.863636 L10.1538462,36.1590903 C10.1538462,36.6235116 10.5326821,36.9999994 11,36.9999994 C11.3175039,37.0003697 11.6084956,36.8240665 11.7536049,36.5434127 L21.7719345,17.6623752 L21.7686294,17.6590906 C21.9187844,17.40387 21.9985891,17.1138224 22,16.8181816 C22,15.889339 21.242328,15.1363634 20.3076923,15.1363634 L11.8461538,15.1363634 L11.8461538,0.840909078 C11.8461538,0.376487818 11.4673179,0 11,0 Z" id="Shape"></path>
                </g>
            </g>
        </g>
    </g>
</svg>