<?xml version="1.0" encoding="UTF-8"?>
<svg width="38px" height="32px" viewBox="0 0 38 32" version="1.1" xmlns="http://www.w3.org/2000/svg" xmlns:xlink="http://www.w3.org/1999/xlink">
    <!-- Generator: sketchtool 50.2 (55047) - http://www.bohemiancoding.com/sketch -->
    <title>7FB7F3B0-F068-447F-8C08-69300A0C6E6F@1x</title>
    <desc>Created with sketchtool.</desc>
    <defs></defs>
    <g id="Page-1" stroke="none" stroke-width="1" fill="none" fill-rule="evenodd">
        <g id="Landing-Page" transform="translate(-702.000000, -969.000000)" fill-rule="nonzero">
            <g id="Group-11" transform="translate(556.000000, 960.000000)">
                <g id="ic--slider" transform="translate(146.000000, 9.000000)">
                    <path d="M37.5,30 L0.5,30 C0.225,30 0,29.55 0,29 C0,28.45 0.225,28 0.5,28 L37.5,28 C37.775,28 38,28.45 38,29 C38,29.55 37.775,30 37.5,30 Z" id="Shape" fill="#66798F"></path>
                    <path d="M0.5,16 L37.5,16 C37.775,16 38,16.45 38,17 C38,17.55 37.775,18 37.5,18 L0.5,18 C0.225,18 0,17.55 0,17 C0,16.45 0.225,16 0.5,16 Z" id="Shape" fill="#66798F"></path>
                    <path d="M37.5,5 L0.5,5 C0.225,5 0,4.55 0,4 C0,3.45 0.225,3 0.5,3 L37.5,3 C37.775,3 38,3.45 38,4 C38,4.55 37.775,5 37.5,5 Z" id="Shape" fill="#66798F"></path>
                    <g id="Group" transform="translate(13.000000, 0.000000)">
                        <circle id="Oval" fill="#BAE0BD" cx="3.5" cy="3.5" r="3"></circle>
                        <path d="M3.5,1 C4.878,1 6,2.122 6,3.5 C6,4.878 4.878,6 3.5,6 C2.122,6 1,4.879 1,3.5 C1,2.121 2.122,1 3.5,1 Z M3.5,0 C1.567,0 0,1.567 0,3.5 C0,5.433 1.567,7 3.5,7 C5.433,7 7,5.433 7,3.5 C7,1.567 5.433,0 3.5,0 Z" id="Shape" fill="#5E9C76"></path>
                    </g>
                    <g id="Group" transform="translate(27.000000, 13.000000)">
                        <circle id="Oval" fill="#BAE0BD" cx="3.5" cy="3.5" r="3"></circle>
                        <path d="M3.5,1 C4.878,1 6,2.122 6,3.5 C6,4.878 4.879,6 3.5,6 C2.122,6 1,4.878 1,3.5 C1,2.122 2.122,1 3.5,1 Z M3.5,0 C1.567,0 0,1.567 0,3.5 C0,5.433 1.567,7 3.5,7 C5.433,7 7,5.433 7,3.5 C7,1.567 5.433,0 3.5,0 Z" id="Shape" fill="#5E9C76"></path>
                    </g>
                    <g id="Group" transform="translate(7.000000, 25.000000)">
                        <circle id="Oval" fill="#BAE0BD" cx="3.5" cy="3.5" r="3"></circle>
                        <path d="M3.5,1 C4.878,1 6,2.122 6,3.5 C6,4.878 4.878,6 3.5,6 C2.122,6 1,4.878 1,3.5 C1,2.122 2.122,1 3.5,1 Z M3.5,0 C1.567,0 0,1.567 0,3.5 C0,5.433 1.567,7 3.5,7 C5.433,7 7,5.433 7,3.5 C7,1.567 5.433,0 3.5,0 Z" id="Shape" fill="#5E9C76"></path>
                    </g>
                </g>
            </g>
        </g>
    </g>
</svg>